<?xml version="1.0" encoding="UTF-8"?>
<svg width="68px" height="13px" viewBox="0 0 68 13" version="1.1" xmlns="http://www.w3.org/2000/svg" xmlns:xlink="http://www.w3.org/1999/xlink">
    <!-- Generator: Sketch 46.2 (44496) - http://www.bohemiancoding.com/sketch -->
    <title>Readme</title>
    <desc>Created with Sketch.</desc>
    <defs></defs>
    <g id="Page-1" stroke="none" stroke-width="1" fill="none" fill-rule="evenodd">
        <g id="Desktop" transform="translate(-172.000000, -26.000000)" fill="#7994E5">
            <g id="Header" transform="translate(-22.000000, 0.000000)">
                <path d="M198.871,33.402 L196.097,33.402 L195.109,38 L194.102,38 L196.401,27.17 L200.163,27.17 C201.366339,27.17 202.271997,27.3979977 202.88,27.854 C203.488003,28.3100023 203.792,28.9876622 203.792,29.887 C203.792,30.8370048 203.475336,31.6096637 202.842,32.205 C202.208664,32.8003363 201.315672,33.1739992 200.163,33.326 L200.087,33.649 L202.253,38 L201.17,38 L198.871,33.402 Z M197.142,28.462 L196.287,32.49 L199.08,32.49 C200.296006,32.49 201.21433,32.2746688 201.835,31.844 C202.45567,31.4133312 202.766,30.7800042 202.766,29.944 C202.766,29.2979968 202.541169,28.8261682 202.0915,28.5285 C201.641831,28.2308318 200.935671,28.082 199.973,28.082 L197.598,28.082 L197.142,28.462 Z M213.691,36.1 L214.261,36.746 C213.754331,37.2273357 213.165337,37.6009987 212.494,37.867 C211.822663,38.1330013 211.126004,38.266 210.404,38.266 C209.200661,38.266 208.206337,37.8955037 207.421,37.1545 C206.635663,36.4134963 206.243,35.4856722 206.243,34.371 C206.243,33.0409934 206.714829,31.9263378 207.6585,31.027 C208.602171,30.1276622 209.783326,29.678 211.202,29.678 C212.291339,29.678 213.17483,29.9946635 213.8525,30.628 C214.53017,31.2613365 214.869,32.0593285 214.869,33.022 C214.869,33.212001 214.853167,33.4051657 214.8215,33.6015 C214.789833,33.7978343 214.742334,33.9846658 214.679,34.162 L207.497,34.162 L207.174,34.333 L207.174,34.371 C207.174,35.2323376 207.477997,35.9479971 208.086,36.518 C208.694003,37.0880028 209.466662,37.373 210.404,37.373 C211.012003,37.373 211.604164,37.2621678 212.1805,37.0405 C212.756836,36.8188322 213.260331,36.5053354 213.691,36.1 Z M207.364,33.136 L207.611,33.345 L213.653,33.345 L213.919,33.022 C213.906333,32.3126631 213.649836,31.723669 213.1495,31.255 C212.649164,30.786331 212.000004,30.552 211.202,30.552 C210.289995,30.552 209.488837,30.786331 208.7985,31.255 C208.108163,31.723669 207.630001,32.3506627 207.364,33.136 Z M225.471,31.179 L225.737,29.963 L226.687,29.963 L224.977,38 L224.027,38 L224.293,36.765 L224.027,36.765 C223.570998,37.2843359 223.096002,37.6643321 222.602,37.905 C222.107998,38.1456679 221.563336,38.266 220.968,38.266 C219.954662,38.266 219.131337,37.9303367 218.498,37.259 C217.864664,36.5876633 217.548,35.7263386 217.548,34.675 C217.548,33.3323266 218.003995,32.1638383 218.916,31.1695 C219.828005,30.1751617 220.90466,29.678 222.146,29.678 C222.779336,29.678 223.358831,29.8141653 223.8845,30.0865 C224.410169,30.3588347 224.805999,30.7229977 225.072,31.179 L225.471,31.179 Z M218.555,34.675 C218.555,35.473004 218.792498,36.1189975 219.2675,36.613 C219.742502,37.1070025 220.366329,37.354 221.139,37.354 C221.848337,37.354 222.49433,37.1608353 223.077,36.7745 C223.65967,36.3881647 224.185331,35.8086705 224.654,35.036 L225.11,32.908 C224.945333,32.1859964 224.600169,31.6191687 224.0745,31.2075 C223.548831,30.7958313 222.906004,30.59 222.146,30.59 C221.145328,30.59 220.29667,30.9921626 219.6,31.7965 C218.90333,32.6008374 218.555,33.5603278 218.555,34.675 Z M233.812,29.678 C234.445336,29.678 235.024831,29.8141653 235.5505,30.0865 C236.076169,30.3588347 236.471999,30.7229977 236.738,31.179 L237.137,31.179 L238.163,26.353 L239.113,26.353 L236.643,38 L235.693,38 L235.959,36.765 L235.693,36.765 C235.236998,37.2843359 234.762002,37.6643321 234.268,37.905 C233.773998,38.1456679 233.229336,38.266 232.634,38.266 C231.620662,38.266 230.797337,37.9303367 230.164,37.259 C229.530664,36.5876633 229.214,35.7263386 229.214,34.675 C229.214,33.3323266 229.669995,32.1638383 230.582,31.1695 C231.494005,30.1751617 232.57066,29.678 233.812,29.678 Z M233.812,30.59 C232.811328,30.59 231.96267,30.9921626 231.266,31.7965 C230.56933,32.6008374 230.221,33.5603278 230.221,34.675 C230.221,35.473004 230.458498,36.1189975 230.9335,36.613 C231.408502,37.1070025 232.032329,37.354 232.805,37.354 C233.514337,37.354 234.16033,37.1608353 234.743,36.7745 C235.32567,36.3881647 235.851331,35.8086705 236.32,35.036 L236.776,32.908 C236.611333,32.1859964 236.266169,31.6191687 235.7405,31.2075 C235.214831,30.7958313 234.572004,30.59 233.812,30.59 Z M250.304,31.939 L249.012,38 L248.043,38 L249.297,32.167 C249.398334,31.6729975 249.376167,31.2898347 249.2305,31.0175 C249.084833,30.7451653 248.828335,30.609 248.461,30.609 C248.080998,30.609 247.704169,30.7673318 247.3305,31.084 C246.956831,31.4006682 246.580002,31.8756635 246.2,32.509 L245.041,38 L244.072,38 L245.307,32.167 C245.421001,31.6856643 245.408334,31.3056681 245.269,31.027 C245.129666,30.7483319 244.870002,30.609 244.49,30.609 C244.109998,30.609 243.733169,30.7641651 243.3595,31.0745 C242.985831,31.3848349 242.609002,31.8629968 242.229,32.509 L241.07,38 L240.101,38 L241.811,29.944 L242.799,29.944 L242.59,30.837 L242.856,30.837 C243.172668,30.4443314 243.498832,30.1530009 243.8345,29.963 C244.170168,29.7729991 244.515332,29.678 244.87,29.678 C245.288002,29.678 245.620499,29.782499 245.8675,29.9915 C246.114501,30.200501 246.276,30.5076646 246.352,30.913 L246.618,30.913 C246.934668,30.5329981 247.289331,30.2321678 247.682,30.0105 C248.074669,29.7888322 248.454665,29.678 248.822,29.678 C249.430003,29.678 249.866999,29.877498 250.133,30.2765 C250.399001,30.675502 250.456001,31.2296631 250.304,31.939 Z M260.355,36.1 L260.925,36.746 C260.418331,37.2273357 259.829337,37.6009987 259.158,37.867 C258.486663,38.1330013 257.790004,38.266 257.068,38.266 C255.864661,38.266 254.870337,37.8955037 254.085,37.1545 C253.299663,36.4134963 252.907,35.4856722 252.907,34.371 C252.907,33.0409934 253.378829,31.9263378 254.3225,31.027 C255.266171,30.1276622 256.447326,29.678 257.866,29.678 C258.955339,29.678 259.83883,29.9946635 260.5165,30.628 C261.19417,31.2613365 261.533,32.0593285 261.533,33.022 C261.533,33.212001 261.517167,33.4051657 261.4855,33.6015 C261.453833,33.7978343 261.406334,33.9846658 261.343,34.162 L254.161,34.162 L253.838,34.333 L253.838,34.371 C253.838,35.2323376 254.141997,35.9479971 254.75,36.518 C255.358003,37.0880028 256.130662,37.373 257.068,37.373 C257.676003,37.373 258.268164,37.2621678 258.8445,37.0405 C259.420836,36.8188322 259.924331,36.5053354 260.355,36.1 Z M254.028,33.136 L254.275,33.345 L260.317,33.345 L260.583,33.022 C260.570333,32.3126631 260.313836,31.723669 259.8135,31.255 C259.313164,30.786331 258.664004,30.552 257.866,30.552 C256.953995,30.552 256.152837,30.786331 255.4625,31.255 C254.772163,31.723669 254.294001,32.3506627 254.028,33.136 Z" id="Readme"></path>
            </g>
        </g>
    </g>
</svg>