<?xml version="1.0" encoding="UTF-8"?>
<svg width="20px" height="20px" viewBox="0 0 20 20" version="1.1" xmlns="http://www.w3.org/2000/svg" xmlns:xlink="http://www.w3.org/1999/xlink">
    <!-- Generator: Sketch 46.2 (44496) - http://www.bohemiancoding.com/sketch -->
    <title>Shape</title>
    <desc>Created with Sketch.</desc>
    <defs></defs>
    <g id="Page-1" stroke="none" stroke-width="1" fill="none" fill-rule="evenodd">
        <g id="Desktop" transform="translate(-597.000000, -22.000000)" fill-rule="nonzero" fill="#000000">
            <g id="Header" transform="translate(-22.000000, 0.000000)">
                <g id="Day/Night" transform="translate(619.000000, 22.000000)">
                    <g id="noun_895253_cc">
                        <g id="Group">
                            <path d="M10,0.0872746988 C9.73058537,0.0872746988 9.51219512,0.303040964 9.51219512,0.56920241 L9.51219512,4.4246241 C9.51219512,4.69078554 9.73058537,4.90655181 10,4.90655181 C10.2694146,4.90655181 10.4878049,4.69078554 10.4878049,4.4246241 L10.4878049,0.56920241 C10.4878049,0.303040964 10.2694146,0.0872746988 10,0.0872746988 Z M3.27743902,2.8432988 C3.1526,2.8432988 3.02208049,2.88473735 2.92682927,2.97884096 C2.73632439,3.1670506 2.73633171,3.47587952 2.92682927,3.66408193 L5.68597561,6.38998554 C5.87647561,6.57819036 6.18906829,6.57819518 6.37957317,6.38998554 C6.57007805,6.2017759 6.57007317,5.89295422 6.37957317,5.70474458 L3.62042683,2.97884096 C3.52517561,2.88473976 3.40227805,2.8432988 3.27743902,2.8432988 Z M16.722561,2.8432988 C16.597722,2.8432988 16.4748244,2.88473976 16.3795732,2.97884096 L13.6204268,5.70474458 C13.4299268,5.89295422 13.429922,6.2017759 13.6204268,6.38998554 C13.8109317,6.57819518 14.1235244,6.57819036 14.3140244,6.38998554 L17.0731707,3.66408193 C17.2636683,3.47587952 17.2636756,3.1670506 17.0731707,2.97884096 C16.9779195,2.88473735 16.8474,2.8432988 16.722561,2.8432988 Z M10,6.35233494 C7.9794561,6.35233494 6.34146341,7.97059277 6.34146341,9.96679518 C6.34146341,11.962988 7.9794561,13.581253 10,13.581253 C12.0205415,13.581253 13.6585366,11.962988 13.6585366,9.96679518 C13.6585366,7.97059277 12.0205415,6.35233494 10,6.35233494 Z M0.487804878,9.48486747 C0.218395171,9.48486747 4.87804879e-08,9.70062651 4.87804879e-08,9.96679518 C4.87804879e-08,10.2329639 0.21839761,10.4487229 0.487804878,10.4487229 L4.3902439,10.4487229 C4.65965122,10.4487229 4.87804878,10.2329639 4.87804878,9.96679518 C4.87805122,9.70062651 4.6596561,9.48486747 4.3902439,9.48486747 L0.487804878,9.48486747 Z M15.6097561,9.48486747 C15.3403439,9.48486747 15.1219488,9.70062651 15.1219512,9.96679518 C15.1219512,10.2329639 15.3403488,10.4487229 15.6097561,10.4487229 L19.5121951,10.4487229 C19.7816024,10.4487229 20,10.2329639 20,9.96679518 C20,9.70062651 19.7816049,9.48486747 19.5121951,9.48486747 L15.6097561,9.48486747 Z M6.03658537,13.4005301 C5.91174634,13.4005301 5.78122927,13.449494 5.68597561,13.5435904 L2.92682927,16.269494 C2.73632927,16.4577108 2.73632439,16.7665301 2.92682927,16.954747 C3.11733171,17.1429639 3.42992927,17.1429398 3.62042683,16.954747 L6.37957317,14.2288434 C6.57007073,14.0406265 6.57008049,13.7318072 6.37957317,13.5435904 C6.28432195,13.449494 6.16142439,13.4005301 6.03658537,13.4005301 Z M13.9634146,13.4005301 C13.8385756,13.4005301 13.715678,13.449494 13.6204268,13.5435904 C13.4299195,13.7318072 13.4299293,14.0406265 13.6204268,14.2288434 L16.3795732,16.954747 C16.5700707,17.1429398 16.8826683,17.1429639 17.0731707,16.954747 C17.2636756,16.7665301 17.2636707,16.4577108 17.0731707,16.269494 L14.3140244,13.5435904 C14.2187707,13.449494 14.0882537,13.4005301 13.9634146,13.4005301 L13.9634146,13.4005301 Z M10,15.0270361 C9.73058293,15.0270361 9.51220244,15.2427952 9.51219512,15.5089639 L9.51219512,19.3643855 C9.51219024,19.6305542 9.7305878,19.8463133 10,19.8463133 C10.2694122,19.8463133 10.4878073,19.6305542 10.4878049,19.3643855 L10.4878049,15.5089639 C10.4877951,15.2427952 10.2694146,15.0270361 10,15.0270361 Z" id="Shape"></path>
                        </g>
                    </g>
                </g>
            </g>
        </g>
    </g>
</svg>